<svg width="164" height="25" viewBox="0 0 164 25" fill="none" xmlns="http://www.w3.org/2000/svg">
<path d="M8.81818 24.3409C7.0303 24.3409 5.49242 23.9621 4.20455 23.2045C2.92424 22.4394 1.93939 21.3788 1.25 20.0227C0.568182 18.6667 0.227273 17.1061 0.227273 15.3409C0.227273 13.553 0.57197 11.9848 1.26136 10.6364C1.95833 9.2803 2.94697 8.22348 4.22727 7.46591C5.50758 6.70076 7.0303 6.31818 8.79545 6.31818C10.3182 6.31818 11.6515 6.5947 12.7955 7.14773C13.9394 7.70076 14.8447 8.47727 15.5114 9.47727C16.178 10.4773 16.5455 11.6515 16.6136 13H12.0455C11.9167 12.1288 11.5758 11.428 11.0227 10.8977C10.4773 10.3598 9.76136 10.0909 8.875 10.0909C8.125 10.0909 7.4697 10.2955 6.90909 10.7045C6.35606 11.1061 5.92424 11.6932 5.61364 12.4659C5.30303 13.2386 5.14773 14.1742 5.14773 15.2727C5.14773 16.3864 5.29924 17.3333 5.60227 18.1136C5.91288 18.8939 6.34848 19.4886 6.90909 19.8977C7.4697 20.3068 8.125 20.5114 8.875 20.5114C9.42803 20.5114 9.92424 20.3977 10.3636 20.1705C10.8106 19.9432 11.178 19.6136 11.4659 19.1818C11.7614 18.7424 11.9545 18.2159 12.0455 17.6023H16.6136C16.5379 18.9356 16.1742 20.1098 15.5227 21.125C14.8788 22.1326 13.9886 22.9205 12.8523 23.4886C11.7159 24.0568 10.3712 24.3409 8.81818 24.3409ZM24.554 0.727272V24H19.7131V0.727272H24.554ZM36.3182 24.3409C34.553 24.3409 33.0265 23.9659 31.7386 23.2159C30.4583 22.4583 29.4697 21.4053 28.7727 20.0568C28.0758 18.7008 27.7273 17.1288 27.7273 15.3409C27.7273 13.5379 28.0758 11.9621 28.7727 10.6136C29.4697 9.25758 30.4583 8.20454 31.7386 7.45454C33.0265 6.69697 34.553 6.31818 36.3182 6.31818C38.0833 6.31818 39.6061 6.69697 40.8864 7.45454C42.1742 8.20454 43.1667 9.25758 43.8636 10.6136C44.5606 11.9621 44.9091 13.5379 44.9091 15.3409C44.9091 17.1288 44.5606 18.7008 43.8636 20.0568C43.1667 21.4053 42.1742 22.4583 40.8864 23.2159C39.6061 23.9659 38.0833 24.3409 36.3182 24.3409ZM36.3409 20.5909C37.1439 20.5909 37.8144 20.3636 38.3523 19.9091C38.8902 19.447 39.2955 18.8182 39.5682 18.0227C39.8485 17.2273 39.9886 16.322 39.9886 15.3068C39.9886 14.2917 39.8485 13.3864 39.5682 12.5909C39.2955 11.7955 38.8902 11.1667 38.3523 10.7045C37.8144 10.2424 37.1439 10.0114 36.3409 10.0114C35.5303 10.0114 34.8485 10.2424 34.2955 10.7045C33.75 11.1667 33.3371 11.7955 33.0568 12.5909C32.7841 13.3864 32.6477 14.2917 32.6477 15.3068C32.6477 16.322 32.7841 17.2273 33.0568 18.0227C33.3371 18.8182 33.75 19.447 34.2955 19.9091C34.8485 20.3636 35.5303 20.5909 36.3409 20.5909ZM63.767 6.54545L57.6648 24H52.2102L46.108 6.54545H51.2216L54.8466 19.0341H55.0284L58.642 6.54545H63.767ZM73.6364 24.3409C71.8409 24.3409 70.2955 23.9773 69 23.25C67.7121 22.5152 66.7197 21.4773 66.0227 20.1364C65.3258 18.7879 64.9773 17.1932 64.9773 15.3523C64.9773 13.5568 65.3258 11.9811 66.0227 10.625C66.7197 9.26894 67.7008 8.21212 68.9659 7.45454C70.2386 6.69697 71.7311 6.31818 73.4432 6.31818C74.5947 6.31818 75.6667 6.50379 76.6591 6.875C77.6591 7.23864 78.5303 7.78788 79.2727 8.52273C80.0227 9.25758 80.6061 10.1818 81.0227 11.2955C81.4394 12.4015 81.6477 13.697 81.6477 15.1818V16.5114H66.9091V13.5114H77.0909C77.0909 12.8144 76.9394 12.197 76.6364 11.6591C76.3333 11.1212 75.9129 10.7008 75.375 10.3977C74.8447 10.0871 74.2273 9.93182 73.5227 9.93182C72.7879 9.93182 72.1364 10.1023 71.5682 10.4432C71.0076 10.7765 70.5682 11.2273 70.25 11.7955C69.9318 12.3561 69.7689 12.9811 69.7614 13.6705V16.5227C69.7614 17.3864 69.9205 18.1326 70.2386 18.7614C70.5644 19.3902 71.0227 19.875 71.6136 20.2159C72.2045 20.5568 72.9053 20.7273 73.7159 20.7273C74.2538 20.7273 74.7462 20.6515 75.1932 20.5C75.6402 20.3485 76.0227 20.1212 76.3409 19.8182C76.6591 19.5152 76.9015 19.1439 77.0682 18.7045L81.5455 19C81.3182 20.0758 80.8523 21.0152 80.1477 21.8182C79.4508 22.6136 78.5492 23.2348 77.4432 23.6818C76.3447 24.1212 75.0758 24.3409 73.6364 24.3409ZM84.8068 24V6.54545H89.5V9.59091H89.6818C90 8.50758 90.5341 7.68939 91.2841 7.13636C92.0341 6.57576 92.8977 6.29545 93.875 6.29545C94.1174 6.29545 94.3788 6.31061 94.6591 6.34091C94.9394 6.37121 95.1856 6.41288 95.3977 6.46591V10.7614C95.1705 10.6932 94.8561 10.6326 94.4545 10.5795C94.053 10.5265 93.6856 10.5 93.3523 10.5C92.6402 10.5 92.0038 10.6553 91.4432 10.9659C90.8902 11.2689 90.4508 11.6932 90.125 12.2386C89.8068 12.7841 89.6477 13.4129 89.6477 14.125V24H84.8068ZM104.974 24.3409C103.187 24.3409 101.649 23.9621 100.361 23.2045C99.0805 22.4394 98.0956 21.3788 97.4062 20.0227C96.7244 18.6667 96.3835 17.1061 96.3835 15.3409C96.3835 13.553 96.7282 11.9848 97.4176 10.6364C98.1146 9.2803 99.1032 8.22348 100.384 7.46591C101.664 6.70076 103.187 6.31818 104.952 6.31818C106.474 6.31818 107.808 6.5947 108.952 7.14773C110.096 7.70076 111.001 8.47727 111.668 9.47727C112.334 10.4773 112.702 11.6515 112.77 13H108.202C108.073 12.1288 107.732 11.428 107.179 10.8977C106.634 10.3598 105.918 10.0909 105.031 10.0909C104.281 10.0909 103.626 10.2955 103.065 10.7045C102.512 11.1061 102.08 11.6932 101.77 12.4659C101.459 13.2386 101.304 14.1742 101.304 15.2727C101.304 16.3864 101.455 17.3333 101.759 18.1136C102.069 18.8939 102.505 19.4886 103.065 19.8977C103.626 20.3068 104.281 20.5114 105.031 20.5114C105.584 20.5114 106.08 20.3977 106.52 20.1705C106.967 19.9432 107.334 19.6136 107.622 19.1818C107.918 18.7424 108.111 18.2159 108.202 17.6023H112.77C112.694 18.9356 112.33 20.1098 111.679 21.125C111.035 22.1326 110.145 22.9205 109.009 23.4886C107.872 24.0568 106.527 24.3409 104.974 24.3409ZM120.71 13.9091V24H115.869V0.727272H120.574V9.625H120.778C121.172 8.5947 121.809 7.78788 122.688 7.20454C123.566 6.61364 124.669 6.31818 125.994 6.31818C127.206 6.31818 128.263 6.58333 129.165 7.11364C130.074 7.63636 130.778 8.39015 131.278 9.375C131.786 10.3523 132.036 11.5227 132.028 12.8864V24H127.188V13.75C127.195 12.6742 126.922 11.8371 126.369 11.2386C125.824 10.6402 125.059 10.3409 124.074 10.3409C123.415 10.3409 122.831 10.4811 122.324 10.7614C121.824 11.0417 121.43 11.4508 121.142 11.9886C120.862 12.5189 120.718 13.1591 120.71 13.9091ZM140.815 24.3295C139.702 24.3295 138.709 24.1364 137.838 23.75C136.967 23.3561 136.277 22.7765 135.77 22.0114C135.27 21.2386 135.02 20.2765 135.02 19.125C135.02 18.1553 135.198 17.3409 135.554 16.6818C135.91 16.0227 136.395 15.4924 137.009 15.0909C137.622 14.6894 138.319 14.3864 139.099 14.1818C139.887 13.9773 140.713 13.8333 141.577 13.75C142.592 13.6439 143.41 13.5455 144.031 13.4545C144.652 13.3561 145.103 13.2121 145.384 13.0227C145.664 12.8333 145.804 12.553 145.804 12.1818V12.1136C145.804 11.3939 145.577 10.8371 145.122 10.4432C144.675 10.0492 144.039 9.85227 143.213 9.85227C142.342 9.85227 141.649 10.0455 141.134 10.4318C140.618 10.8106 140.277 11.2879 140.111 11.8636L135.634 11.5C135.861 10.4394 136.308 9.52273 136.974 8.75C137.641 7.9697 138.501 7.37121 139.554 6.95454C140.615 6.5303 141.842 6.31818 143.236 6.31818C144.205 6.31818 145.134 6.43182 146.02 6.65909C146.914 6.88636 147.705 7.23864 148.395 7.71591C149.092 8.19318 149.641 8.80682 150.043 9.55682C150.444 10.2992 150.645 11.1894 150.645 12.2273V24H146.054V21.5795H145.918C145.637 22.125 145.262 22.6061 144.793 23.0227C144.323 23.4318 143.759 23.7538 143.099 23.9886C142.44 24.2159 141.679 24.3295 140.815 24.3295ZM142.202 20.9886C142.914 20.9886 143.543 20.8485 144.088 20.5682C144.634 20.2803 145.062 19.8939 145.372 19.4091C145.683 18.9242 145.838 18.375 145.838 17.7614V15.9091C145.687 16.0076 145.478 16.0985 145.213 16.1818C144.955 16.2576 144.664 16.3295 144.338 16.3977C144.012 16.4583 143.687 16.5152 143.361 16.5682C143.035 16.6136 142.74 16.6553 142.474 16.6932C141.906 16.7765 141.41 16.9091 140.986 17.0909C140.562 17.2727 140.232 17.5189 139.997 17.8295C139.762 18.1326 139.645 18.5114 139.645 18.9659C139.645 19.625 139.884 20.1288 140.361 20.4773C140.846 20.8182 141.459 20.9886 142.202 20.9886ZM163.685 6.54545V10.1818H153.173V6.54545H163.685ZM155.56 2.36364H160.401V18.6364C160.401 19.0833 160.469 19.4318 160.605 19.6818C160.741 19.9242 160.931 20.0947 161.173 20.1932C161.423 20.2917 161.711 20.3409 162.037 20.3409C162.264 20.3409 162.491 20.322 162.719 20.2841C162.946 20.2386 163.12 20.2045 163.241 20.1818L164.003 23.7841C163.76 23.8598 163.42 23.947 162.98 24.0455C162.541 24.1515 162.007 24.2159 161.378 24.2386C160.211 24.2841 159.188 24.1288 158.31 23.7727C157.438 23.4167 156.76 22.8636 156.276 22.1136C155.791 21.3636 155.552 20.4167 155.56 19.2727V2.36364Z" fill="black"/>
</svg>
