<svg width="23" height="17" viewBox="0 0 23 17" fill="currentColor"
  xmlns="http://www.w3.org/2000/svg">
  <path
    d="M5.3125 16.125C2.5 16.125 0.25 13.875 0.25 11.0625C0.25 8.88281 1.65625 6.98438 3.625 6.31641C3.625 6.21094 3.625 6.10547 3.625 6C3.625 2.90625 6.12109 0.375 9.25 0.375C11.3242 0.375 13.1523 1.53516 14.1016 3.22266C14.6289 2.83594 15.2969 2.625 16 2.625C17.8633 2.625 19.375 4.13672 19.375 6C19.375 6.45703 19.2695 6.84375 19.1289 7.23047C21.2031 7.65234 22.75 9.48047 22.75 11.625C22.75 14.1211 20.7109 16.125 18.25 16.125H5.3125ZM8.44141 6.24609C8.26562 6.66797 8.51172 7.16016 8.93359 7.33594C9.39062 7.47656 9.88281 7.26562 10.0234 6.80859L10.0586 6.77344C10.0938 6.66797 10.1992 6.5625 10.3047 6.5625H12.3438C12.6602 6.5625 12.9062 6.80859 12.9062 7.125C12.9062 7.30078 12.8008 7.47656 12.625 7.58203L11.0781 8.46094C10.7969 8.60156 10.6562 8.88281 10.6562 9.19922V9.65625C10.6562 10.1484 11.0078 10.5 11.5 10.5C11.957 10.5 12.3086 10.1484 12.3086 9.69141L13.4688 9.02344C14.1367 8.63672 14.5938 7.89844 14.5938 7.125C14.5938 5.89453 13.5742 4.875 12.3438 4.875H10.3047C9.46094 4.875 8.72266 5.40234 8.44141 6.21094V6.24609ZM11.5 11.625C10.8672 11.625 10.375 12.1523 10.375 12.75C10.375 13.3828 10.8672 13.875 11.5 13.875C12.0977 13.875 12.625 13.3828 12.625 12.75C12.625 12.1523 12.0977 11.625 11.5 11.625Z" />
</svg>