<svg width="23" height="19" viewBox="0 0 23 19" fill="currentColor"
  xmlns="http://www.w3.org/2000/svg">
  <path
    d="M20.5 4.75C21.7305 4.75 22.75 5.76953 22.75 7V13.7852C22.75 15.0156 21.7305 16 20.5 16H19.375V17.9336C19.375 18.2148 19.0234 18.3555 18.7773 18.1797L15.8594 16H11.4648C10.2344 16 9.25 15.0156 9.25 13.75V12.625H12.625C14.4531 12.625 16 11.1133 16 9.25V4.75H20.5ZM14.875 9.25C14.875 10.5156 13.8555 11.5 12.625 11.5L7.07031 11.5352L4.15234 13.7148C3.94141 13.8555 3.625 13.7148 3.625 13.4336V11.5352L2.5 11.5C1.23438 11.5 0.25 10.5156 0.25 9.25V2.5C0.25 1.26953 1.23438 0.25 2.5 0.25H12.625C13.8555 0.25 14.875 1.26953 14.875 2.5V9.25ZM7.5625 9.70703C8.05469 9.70703 8.40625 9.32031 8.40625 8.82812C8.40625 8.37109 8.05469 7.98438 7.5625 7.98438C7.07031 7.98438 6.71875 8.37109 6.71875 8.82812C6.71875 9.32031 7.07031 9.70703 7.5625 9.70703ZM9.42578 5.83984C10.0234 5.48828 10.375 4.89062 10.375 4.25781C10.375 3.20312 9.53125 2.35938 8.47656 2.35938H7.07031C6.01562 2.35938 5.20703 3.20312 5.20703 4.25781C5.20703 4.57422 5.48828 4.89062 5.83984 4.89062C6.19141 4.89062 6.47266 4.57422 6.47266 4.25781C6.47266 3.90625 6.75391 3.66016 7.07031 3.66016H8.47656C8.79297 3.66016 9.07422 3.90625 9.07422 4.25781C9.07422 4.46875 8.96875 4.64453 8.75781 4.75L7.24609 5.66406C7.03516 5.80469 6.92969 6.01562 6.92969 6.22656V6.64844C6.92969 7 7.17578 7.31641 7.52734 7.31641C7.87891 7.31641 8.16016 7 8.16016 6.64844V6.61328L9.42578 5.83984Z" />
</svg>