<svg width="137" height="29" viewBox="0 0 137 29" fill="none" xmlns="http://www.w3.org/2000/svg">
<path d="M11.6136 4.54545V8.63636H0.602273V4.54545H11.6136ZM2.90909 0.363636H8.46591V16.5114C8.46591 16.8523 8.51894 17.1288 8.625 17.3409C8.73864 17.5455 8.90152 17.6932 9.11364 17.7841C9.32576 17.8674 9.57955 17.9091 9.875 17.9091C10.0871 17.9091 10.3106 17.8902 10.5455 17.8523C10.7879 17.8068 10.9697 17.7689 11.0909 17.7386L11.9318 21.75C11.6667 21.8258 11.2917 21.9205 10.8068 22.0341C10.3295 22.1477 9.75758 22.2197 9.09091 22.25C7.78788 22.3106 6.67045 22.1591 5.73864 21.7955C4.81439 21.4242 4.10606 20.8485 3.61364 20.0682C3.12879 19.2879 2.89394 18.3068 2.90909 17.125V0.363636ZM12.2089 22V4.54545H17.6066V7.72727H17.7884C18.1066 6.57576 18.6255 5.7197 19.3452 5.15909C20.0649 4.59091 20.902 4.30682 21.8566 4.30682C22.1142 4.30682 22.3793 4.32576 22.652 4.36364C22.9248 4.39394 23.1786 4.44318 23.4134 4.51136V9.34091C23.1483 9.25 22.7998 9.17803 22.368 9.125C21.9437 9.07197 21.5649 9.04545 21.2316 9.04545C20.5725 9.04545 19.9778 9.19318 19.4475 9.48864C18.9248 9.77651 18.5119 10.1818 18.2089 10.7045C17.9134 11.2197 17.7657 11.8258 17.7657 12.5227V22H12.2089ZM34.699 14.4659V4.54545H40.2444V22H34.949V18.75H34.7672C34.3808 19.8182 33.7217 20.6667 32.7899 21.2955C31.8656 21.9167 30.7482 22.2273 29.4376 22.2273C28.2482 22.2273 27.2028 21.9545 26.3013 21.4091C25.3997 20.8636 24.699 20.1023 24.199 19.125C23.699 18.1402 23.4452 16.9886 23.4376 15.6705V4.54545H28.9944V14.5795C29.002 15.5265 29.252 16.2727 29.7444 16.8182C30.2369 17.3636 30.9073 17.6364 31.7558 17.6364C32.3088 17.6364 32.805 17.5152 33.2444 17.2727C33.6914 17.0227 34.0437 16.6629 34.3013 16.1932C34.5664 15.7159 34.699 15.1402 34.699 14.4659ZM56.78 9.875L51.6777 10.0114C51.6247 9.64773 51.4808 9.32576 51.2459 9.04545C51.0111 8.75758 50.7042 8.53409 50.3255 8.375C49.9542 8.20833 49.5224 8.125 49.03 8.125C48.3861 8.125 47.8368 8.25379 47.3823 8.51136C46.9353 8.76894 46.7156 9.11742 46.7232 9.55682C46.7156 9.89773 46.852 10.1932 47.1323 10.4432C47.4202 10.6932 47.9315 10.8939 48.6664 11.0455L52.03 11.6818C53.7724 12.0152 55.0679 12.5682 55.9164 13.3409C56.7724 14.1136 57.2042 15.1364 57.2118 16.4091C57.2042 17.6061 56.8482 18.6477 56.1436 19.5341C55.4467 20.4205 54.4921 21.1098 53.28 21.6023C52.0679 22.0871 50.6815 22.3295 49.1209 22.3295C46.6285 22.3295 44.6626 21.8182 43.2232 20.7955C41.7914 19.7652 40.9732 18.3864 40.7686 16.6591L46.2573 16.5227C46.3785 17.1591 46.6929 17.6439 47.2005 17.9773C47.708 18.3106 48.3558 18.4773 49.1436 18.4773C49.8558 18.4773 50.4353 18.3447 50.8823 18.0795C51.3292 17.8144 51.5565 17.4621 51.5641 17.0227C51.5565 16.6288 51.3823 16.3144 51.0414 16.0795C50.7005 15.8371 50.1664 15.6477 49.4391 15.5114L46.3936 14.9318C44.6436 14.6136 43.3406 14.0265 42.4845 13.1705C41.6285 12.3068 41.2042 11.2083 41.2118 9.875C41.2042 8.70833 41.5148 7.71212 42.1436 6.88636C42.7724 6.05303 43.6664 5.41667 44.8255 4.97727C45.9845 4.53788 47.352 4.31818 48.9277 4.31818C51.2914 4.31818 53.155 4.81439 54.5186 5.80682C55.8823 6.79167 56.6361 8.14773 56.78 9.875ZM67.5599 4.54545V8.63636H56.5485V4.54545H67.5599ZM58.8553 0.363636H64.4122V16.5114C64.4122 16.8523 64.4652 17.1288 64.5713 17.3409C64.6849 17.5455 64.8478 17.6932 65.0599 17.7841C65.272 17.8674 65.5258 17.9091 65.8213 17.9091C66.0334 17.9091 66.2569 17.8902 66.4917 17.8523C66.7341 17.8068 66.9159 17.7689 67.0372 17.7386L67.8781 21.75C67.6129 21.8258 67.2379 21.9205 66.7531 22.0341C66.2758 22.1477 65.7038 22.2197 65.0372 22.25C63.7341 22.3106 62.6167 22.1591 61.6849 21.7955C60.7606 21.4242 60.0523 20.8485 59.5599 20.0682C59.075 19.2879 58.8402 18.3068 58.8553 17.125V0.363636ZM71.5528 28.5455C70.8862 28.5455 70.2574 28.4924 69.6665 28.3864C69.0756 28.2879 68.568 28.1553 68.1438 27.9886L69.371 23.9545C69.9165 24.1364 70.4089 24.2424 70.8483 24.2727C71.2953 24.303 71.6778 24.2311 71.996 24.0568C72.3218 23.8902 72.5718 23.5909 72.746 23.1591L72.9619 22.6364L66.7574 4.54545H72.5756L75.7915 17H75.9733L79.2347 4.54545H85.0869L78.5074 23.6705C78.1892 24.625 77.7385 25.4659 77.1551 26.1932C76.5794 26.928 75.8331 27.5038 74.9165 27.9205C74.0074 28.3371 72.8862 28.5455 71.5528 28.5455Z" fill="#0B1F35"/>
<path d="M84.9776 28.5455V4.54545H90.4776V7.53409H90.6481C90.8753 7.00379 91.1973 6.49242 91.614 6C92.0382 5.50758 92.5761 5.10606 93.2276 4.79545C93.8867 4.47727 94.6746 4.31818 95.5912 4.31818C96.8034 4.31818 97.9359 4.63636 98.989 5.27273C100.05 5.90909 100.906 6.89015 101.557 8.21591C102.209 9.54167 102.534 11.2311 102.534 13.2841C102.534 15.2614 102.22 16.9167 101.591 18.25C100.97 19.5833 100.129 20.5833 99.0685 21.25C98.0155 21.9167 96.845 22.25 95.5572 22.25C94.6784 22.25 93.917 22.1061 93.2731 21.8182C92.6291 21.5303 92.0875 21.1515 91.6481 20.6818C91.2162 20.2121 90.8829 19.7083 90.6481 19.1705H90.5344V28.5455H84.9776ZM90.4208 13.2727C90.4208 14.2121 90.5458 15.0303 90.7958 15.7273C91.0534 16.4242 91.4208 16.9659 91.8981 17.3523C92.3829 17.7311 92.9625 17.9205 93.6367 17.9205C94.3185 17.9205 94.8981 17.7311 95.3753 17.3523C95.8526 16.9659 96.2125 16.4242 96.4549 15.7273C96.7049 15.0303 96.8299 14.2121 96.8299 13.2727C96.8299 12.3333 96.7049 11.5189 96.4549 10.8295C96.2125 10.1402 95.8526 9.60606 95.3753 9.22727C94.9056 8.84848 94.3261 8.65909 93.6367 8.65909C92.9549 8.65909 92.3753 8.8447 91.8981 9.21591C91.4208 9.58712 91.0534 10.1174 90.7958 10.8068C90.5458 11.4962 90.4208 12.3182 90.4208 13.2727ZM108.127 22.2955C107.013 22.2955 106.025 22.1098 105.161 21.7386C104.305 21.3598 103.627 20.7917 103.127 20.0341C102.634 19.2689 102.388 18.3106 102.388 17.1591C102.388 16.1894 102.559 15.3712 102.9 14.7045C103.24 14.0379 103.71 13.4962 104.309 13.0795C104.907 12.6629 105.597 12.3485 106.377 12.1364C107.157 11.9167 107.99 11.7689 108.877 11.6932C109.869 11.6023 110.668 11.5076 111.275 11.4091C111.881 11.303 112.32 11.1553 112.593 10.9659C112.873 10.7689 113.013 10.4924 113.013 10.1364V10.0795C113.013 9.49621 112.812 9.04545 112.411 8.72727C112.009 8.40909 111.468 8.25 110.786 8.25C110.051 8.25 109.46 8.40909 109.013 8.72727C108.566 9.04545 108.282 9.48485 108.161 10.0455L103.036 9.86364C103.187 8.80303 103.578 7.85606 104.206 7.02273C104.843 6.18182 105.714 5.52273 106.82 5.04545C107.934 4.56061 109.271 4.31818 110.831 4.31818C111.945 4.31818 112.972 4.45076 113.911 4.71591C114.85 4.97348 115.668 5.35227 116.365 5.85227C117.062 6.3447 117.6 6.95076 117.979 7.67045C118.365 8.39015 118.559 9.21212 118.559 10.1364V22H113.331V19.5682H113.195C112.884 20.1591 112.487 20.6591 112.002 21.0682C111.525 21.4773 110.96 21.7841 110.309 21.9886C109.665 22.1932 108.937 22.2955 108.127 22.2955ZM109.843 18.6591C110.441 18.6591 110.979 18.5379 111.456 18.2955C111.941 18.053 112.328 17.7197 112.615 17.2955C112.903 16.8636 113.047 16.3636 113.047 15.7955V14.1364C112.888 14.2197 112.695 14.2955 112.468 14.3636C112.248 14.4318 112.006 14.4962 111.74 14.5568C111.475 14.6174 111.203 14.6705 110.922 14.7159C110.642 14.7614 110.373 14.803 110.115 14.8409C109.593 14.9242 109.146 15.053 108.775 15.2273C108.411 15.4015 108.131 15.6288 107.934 15.9091C107.744 16.1818 107.65 16.5076 107.65 16.8864C107.65 17.4621 107.854 17.9015 108.263 18.2045C108.68 18.5076 109.206 18.6591 109.843 18.6591ZM122.489 28.5455C121.822 28.5455 121.194 28.4924 120.603 28.3864C120.012 28.2879 119.504 28.1553 119.08 27.9886L120.307 23.9545C120.853 24.1364 121.345 24.2424 121.785 24.2727C122.232 24.303 122.614 24.2311 122.932 24.0568C123.258 23.8902 123.508 23.5909 123.682 23.1591L123.898 22.6364L117.694 4.54545H123.512L126.728 17H126.91L130.171 4.54545H136.023L129.444 23.6705C129.125 24.625 128.675 25.4659 128.091 26.1932C127.516 26.928 126.769 27.5038 125.853 27.9205C124.944 28.3371 123.822 28.5455 122.489 28.5455Z" fill="#1BC339"/>
</svg>
